<mxfile host="app.diagrams.net" agent="Mozilla/5.0 (Windows NT 10.0; Win64; x64) AppleWebKit/537.36 (KHTML, like Gecko) Chrome/131.0.0.0 Safari/537.36" version="25.0.1">
  <diagram name="Trang-1" id="KHuDGHu2drTXMuDKsN5A">
    <mxGraphModel dx="1050" dy="522" grid="1" gridSize="10" guides="1" tooltips="1" connect="1" arrows="1" fold="1" page="1" pageScale="1" pageWidth="827" pageHeight="1169" math="0" shadow="0">
      <root>
        <mxCell id="0" />
        <mxCell id="1" parent="0" />
        <mxCell id="D4LRCzNpmW36ClJJyiUz-3" style="edgeStyle=orthogonalEdgeStyle;rounded=0;orthogonalLoop=1;jettySize=auto;html=1;entryX=0.5;entryY=0;entryDx=0;entryDy=0;" edge="1" parent="1" source="D4LRCzNpmW36ClJJyiUz-1" target="D4LRCzNpmW36ClJJyiUz-2">
          <mxGeometry relative="1" as="geometry" />
        </mxCell>
        <mxCell id="D4LRCzNpmW36ClJJyiUz-1" value="Start" style="ellipse;whiteSpace=wrap;html=1;" vertex="1" parent="1">
          <mxGeometry x="354" y="40" width="120" height="80" as="geometry" />
        </mxCell>
        <mxCell id="D4LRCzNpmW36ClJJyiUz-7" style="edgeStyle=orthogonalEdgeStyle;rounded=0;orthogonalLoop=1;jettySize=auto;html=1;entryX=0.5;entryY=0;entryDx=0;entryDy=0;" edge="1" parent="1" source="D4LRCzNpmW36ClJJyiUz-2" target="D4LRCzNpmW36ClJJyiUz-6">
          <mxGeometry relative="1" as="geometry" />
        </mxCell>
        <mxCell id="D4LRCzNpmW36ClJJyiUz-2" value="int a" style="shape=parallelogram;perimeter=parallelogramPerimeter;whiteSpace=wrap;html=1;fixedSize=1;" vertex="1" parent="1">
          <mxGeometry x="354" y="160" width="120" height="60" as="geometry" />
        </mxCell>
        <mxCell id="D4LRCzNpmW36ClJJyiUz-9" style="edgeStyle=orthogonalEdgeStyle;rounded=0;orthogonalLoop=1;jettySize=auto;html=1;entryX=0.5;entryY=0;entryDx=0;entryDy=0;" edge="1" parent="1" source="D4LRCzNpmW36ClJJyiUz-6" target="D4LRCzNpmW36ClJJyiUz-8">
          <mxGeometry relative="1" as="geometry" />
        </mxCell>
        <mxCell id="D4LRCzNpmW36ClJJyiUz-10" value="true" style="edgeLabel;html=1;align=center;verticalAlign=middle;resizable=0;points=[];" vertex="1" connectable="0" parent="D4LRCzNpmW36ClJJyiUz-9">
          <mxGeometry x="-0.06" y="1" relative="1" as="geometry">
            <mxPoint as="offset" />
          </mxGeometry>
        </mxCell>
        <mxCell id="D4LRCzNpmW36ClJJyiUz-11" style="edgeStyle=orthogonalEdgeStyle;rounded=0;orthogonalLoop=1;jettySize=auto;html=1;" edge="1" parent="1" source="D4LRCzNpmW36ClJJyiUz-6">
          <mxGeometry relative="1" as="geometry">
            <mxPoint x="600" y="310" as="targetPoint" />
          </mxGeometry>
        </mxCell>
        <mxCell id="D4LRCzNpmW36ClJJyiUz-12" value="false" style="edgeLabel;html=1;align=center;verticalAlign=middle;resizable=0;points=[];" vertex="1" connectable="0" parent="D4LRCzNpmW36ClJJyiUz-11">
          <mxGeometry x="0.0964" y="2" relative="1" as="geometry">
            <mxPoint as="offset" />
          </mxGeometry>
        </mxCell>
        <mxCell id="D4LRCzNpmW36ClJJyiUz-6" value="a&amp;gt;1" style="rhombus;whiteSpace=wrap;html=1;" vertex="1" parent="1">
          <mxGeometry x="374" y="270" width="80" height="80" as="geometry" />
        </mxCell>
        <mxCell id="D4LRCzNpmW36ClJJyiUz-18" style="edgeStyle=orthogonalEdgeStyle;rounded=0;orthogonalLoop=1;jettySize=auto;html=1;" edge="1" parent="1" source="D4LRCzNpmW36ClJJyiUz-8">
          <mxGeometry relative="1" as="geometry">
            <mxPoint x="610" y="350" as="targetPoint" />
          </mxGeometry>
        </mxCell>
        <mxCell id="D4LRCzNpmW36ClJJyiUz-21" style="edgeStyle=orthogonalEdgeStyle;rounded=0;orthogonalLoop=1;jettySize=auto;html=1;entryX=0.5;entryY=0;entryDx=0;entryDy=0;" edge="1" parent="1" source="D4LRCzNpmW36ClJJyiUz-8" target="D4LRCzNpmW36ClJJyiUz-20">
          <mxGeometry relative="1" as="geometry" />
        </mxCell>
        <mxCell id="D4LRCzNpmW36ClJJyiUz-8" value="&lt;div&gt;for (int i = 2; i * i &amp;lt;= n; i++) {&lt;/div&gt;&lt;div&gt;&amp;nbsp; &amp;nbsp; &amp;nbsp; &amp;nbsp; if (n % i == 0) {&lt;/div&gt;&lt;div&gt;&amp;nbsp; &amp;nbsp; &amp;nbsp; &amp;nbsp; &amp;nbsp; &amp;nbsp; return false;&lt;/div&gt;&lt;div&gt;&amp;nbsp; &amp;nbsp; &amp;nbsp; &amp;nbsp; }&lt;/div&gt;&lt;div&gt;&amp;nbsp; &amp;nbsp; }&lt;/div&gt;" style="rounded=0;whiteSpace=wrap;html=1;" vertex="1" parent="1">
          <mxGeometry x="336" y="390" width="156" height="80" as="geometry" />
        </mxCell>
        <mxCell id="D4LRCzNpmW36ClJJyiUz-13" value="" style="ellipse;whiteSpace=wrap;html=1;" vertex="1" parent="1">
          <mxGeometry x="590" y="480" width="120" height="80" as="geometry" />
        </mxCell>
        <mxCell id="D4LRCzNpmW36ClJJyiUz-15" style="edgeStyle=orthogonalEdgeStyle;rounded=0;orthogonalLoop=1;jettySize=auto;html=1;" edge="1" parent="1" source="D4LRCzNpmW36ClJJyiUz-14" target="D4LRCzNpmW36ClJJyiUz-13">
          <mxGeometry relative="1" as="geometry" />
        </mxCell>
        <mxCell id="D4LRCzNpmW36ClJJyiUz-14" value="k p số ngto" style="shape=parallelogram;perimeter=parallelogramPerimeter;whiteSpace=wrap;html=1;fixedSize=1;" vertex="1" parent="1">
          <mxGeometry x="590" y="280" width="120" height="60" as="geometry" />
        </mxCell>
        <mxCell id="D4LRCzNpmW36ClJJyiUz-22" style="edgeStyle=orthogonalEdgeStyle;rounded=0;orthogonalLoop=1;jettySize=auto;html=1;entryX=0;entryY=0.5;entryDx=0;entryDy=0;" edge="1" parent="1" source="D4LRCzNpmW36ClJJyiUz-20" target="D4LRCzNpmW36ClJJyiUz-13">
          <mxGeometry relative="1" as="geometry" />
        </mxCell>
        <mxCell id="D4LRCzNpmW36ClJJyiUz-20" value="là số ngto" style="shape=parallelogram;perimeter=parallelogramPerimeter;whiteSpace=wrap;html=1;fixedSize=1;" vertex="1" parent="1">
          <mxGeometry x="354" y="490" width="120" height="60" as="geometry" />
        </mxCell>
      </root>
    </mxGraphModel>
  </diagram>
</mxfile>
